<?xml version="1.0" encoding="iso-8859-1"?>
<!-- Generator: Adobe Illustrator 19.0.0, SVG Export Plug-In . SVG Version: 6.00 Build 0)  -->
<svg version="1.1" id="Layer_1" xmlns="http://www.w3.org/2000/svg" xmlns:xlink="http://www.w3.org/1999/xlink" x="0px" y="0px"
	 viewBox="0 0 504.535 504.535" style="enable-background:new 0 0 504.535 504.535;" xml:space="preserve">
<g transform="translate(5 5)">
	<g>
		<path style="fill:#F2EDDA;" d="M64.71,358.015c48.64-4.267,121.173-23.04,203.947-55.467
			c82.773-32.427,149.333-67.413,187.733-97.28c2.56,18.773,4.267,31.573,4.267,31.573c4.267,88.747-48.64,174.08-135.68,208.213
			c-87.893,34.133-184.32,5.973-240.64-62.293C83.484,383.615,72.39,369.109,64.71,358.015L64.71,358.015L64.71,358.015z"/>
		<path style="fill:#F2EDDA;" d="M446.15,170.282c5.12,11.947,7.68,23.04,10.24,35.84c-38.4,29.867-104.96,64.853-187.733,97.28
			c-83.627,32.427-155.307,51.2-203.947,55.467l0,0c-6.827-11.093-11.947-21.333-16.213-33.28
			C5.831,215.509,60.444,91.775,170.524,49.962C279.75,5.589,403.484,60.202,446.15,170.282"/>
	</g>
	<path style="fill:#FFD0A1;" d="M153.457,136.149c18.773,0,34.133,15.36,34.133,34.133s-15.36,34.133-34.133,34.133
		s-34.133-15.36-34.133-34.133S134.684,136.149,153.457,136.149z M341.19,170.282c9.387,0,17.067,7.68,17.067,17.067
		s-7.68,17.067-17.067,17.067s-17.067-7.68-17.067-17.067S331.804,170.282,341.19,170.282z M247.324,358.015
		c13.653,0,25.6,11.093,25.6,25.6c0,14.507-11.947,25.6-25.6,25.6c-14.507,0-25.6-11.093-25.6-25.6
		C221.724,369.109,233.67,358.015,247.324,358.015z M225.99,238.549c6.827,0,12.8,5.973,12.8,12.8c0,6.827-5.973,12.8-12.8,12.8
		s-12.8-5.973-12.8-12.8C213.19,244.522,219.164,238.549,225.99,238.549z"/>
</g>
<path style="fill:#51565F;" d="M252.324,469.682c-63.147,0-124.587-27.307-167.253-78.507c-1.707-1.707-0.853-4.267,0.853-5.973
	c1.707-1.707,4.267-0.853,5.973,0.853c57.173,69.12,152.747,93.013,236.373,60.587s137.387-114.347,133.12-203.947
	c0-2.56,1.707-4.267,4.267-4.267s4.267,1.707,4.267,4.267c4.267,93.013-51.2,178.347-139.093,212.48
	C305.23,464.562,278.777,469.682,252.324,469.682z M252.324,418.482c-16.213,0-29.867-13.653-29.867-29.867
	c0-16.213,13.653-29.867,29.867-29.867s29.867,13.653,29.867,29.867C282.19,404.829,268.537,418.482,252.324,418.482z
	 M252.324,367.282c-11.947,0-21.333,9.387-21.333,21.333c0,11.947,9.387,21.333,21.333,21.333s21.333-9.387,21.333-21.333
	C273.657,376.669,264.27,367.282,252.324,367.282z M50.084,368.135c-23.04,0-42.667-4.267-48.64-17.92
	c-3.413-8.533-0.853-19.627,8.533-31.573c1.707-1.707,4.267-2.56,5.973-0.853c1.707,1.707,2.56,4.267,0.853,5.973
	c-6.827,8.533-9.387,17.067-6.827,23.04c4.267,10.24,23.04,14.507,52.907,12.8c-5.12-8.533-9.387-17.92-13.653-28.16
	c-21.333-53.76-19.627-113.493,3.413-166.4c23.04-52.907,66.56-93.867,120.32-115.2c53.76-21.333,113.493-19.627,166.4,3.413
	c52.907,23.04,93.867,66.56,115.2,120.32c4.267,10.24,6.827,19.627,9.387,29.867c23.04-18.773,34.133-34.987,30.72-45.227
	c-2.56-6.827-12.8-10.24-20.48-11.093c-2.56,0-4.267-2.56-3.413-5.12c0-2.56,2.56-4.267,5.12-3.413
	c14.507,2.56,23.893,8.533,27.307,17.067c8.533,22.187-25.6,51.2-55.467,71.68c-41.813,28.16-102.4,58.88-172.373,85.333
	c-69.12,27.307-134.827,46.08-184.32,52.907C77.39,367.282,63.737,368.135,50.084,368.135z M252.324,43.015
	c-25.6,0-51.2,5.12-75.947,14.507c-52.053,20.48-93.013,59.733-116.053,110.933s-23.893,107.52-3.413,159.573
	c4.267,11.947,9.387,21.333,14.507,30.72c5.12-0.853,11.093-0.853,17.067-1.707c48.64-6.827,113.493-25.6,182.613-52.907
	c69.12-26.453,128.853-56.32,170.667-84.48c5.12-3.413,9.387-6.827,14.507-10.24c-2.56-11.093-5.12-21.333-9.387-32.427
	c-20.48-52.053-59.733-93.013-110.933-116.053C309.497,48.989,281.337,43.015,252.324,43.015z M376.057,341.682
	c-5.12,0-8.533-3.413-8.533-8.533s3.413-8.533,8.533-8.533s8.533,3.413,8.533,8.533S380.324,341.682,376.057,341.682z
	 M94.457,290.482c-5.12,0-8.533-3.413-8.533-8.533s3.413-8.533,8.533-8.533c5.12,0,8.533,3.413,8.533,8.533
	S98.724,290.482,94.457,290.482z M230.99,273.415c-9.387,0-17.067-7.68-17.067-17.067s7.68-17.067,17.067-17.067
	s17.067,7.68,17.067,17.067S240.377,273.415,230.99,273.415z M230.99,247.815c-5.12,0-8.533,3.413-8.533,8.533
	c0,5.12,3.413,8.533,8.533,8.533c5.12,0,8.533-3.413,8.533-8.533C239.524,251.229,235.257,247.815,230.99,247.815z M346.19,213.682
	c-11.947,0-21.333-9.387-21.333-21.333c0-11.947,9.387-21.333,21.333-21.333c11.947,0,21.333,9.387,21.333,21.333
	C367.524,204.295,358.137,213.682,346.19,213.682z M346.19,179.549c-6.827,0-12.8,5.973-12.8,12.8c0,6.827,5.973,12.8,12.8,12.8
	s12.8-5.973,12.8-12.8C358.99,185.522,353.017,179.549,346.19,179.549z M158.457,213.682c-21.333,0-38.4-17.067-38.4-38.4
	s17.067-38.4,38.4-38.4s38.4,17.067,38.4,38.4S179.79,213.682,158.457,213.682z M158.457,145.415
	c-16.213,0-29.867,13.653-29.867,29.867s13.653,29.867,29.867,29.867s29.867-13.653,29.867-29.867S174.67,145.415,158.457,145.415z
	 M273.657,128.349c-5.12,0-8.533-3.413-8.533-8.533c0-5.12,3.413-8.533,8.533-8.533s8.533,3.413,8.533,8.533
	C282.19,124.935,277.924,128.349,273.657,128.349z"/>
<g>
</g>
<g>
</g>
<g>
</g>
<g>
</g>
<g>
</g>
<g>
</g>
<g>
</g>
<g>
</g>
<g>
</g>
<g>
</g>
<g>
</g>
<g>
</g>
<g>
</g>
<g>
</g>
<g>
</g>
</svg>
